<svg width="1412" height="904" viewBox="0 0 1412 904" fill="none" xmlns="http://www.w3.org/2000/svg">
<rect x="157.621" y="151.426" width="300" height="303" fill="#6E7481"/>
<rect x="125.621" y="709.426" width="360" height="165" fill="#838A97"/>
<path d="M305.121 277.426L486.553 719.926H123.689L305.121 277.426Z" fill="#6E7481"/>
<path d="M466.279 409.625C447.031 439.447 419.939 463.116 388.238 478.206L384.725 466.369C413.651 452.215 438.374 430.384 456.038 403.016C479.094 367.295 488.601 324.501 482.839 282.378C477.077 240.255 456.427 201.586 424.625 173.369C392.824 145.152 351.972 129.25 309.462 128.543C266.953 127.835 225.595 142.368 192.871 169.511C160.148 196.654 138.222 234.614 131.062 276.522C123.901 318.43 131.978 361.517 153.832 397.985C170.575 425.926 194.558 448.567 222.997 463.676L219.092 475.39C187.911 459.253 161.622 434.696 143.377 404.25C120.027 365.284 111.397 319.247 119.048 274.469C126.699 229.691 150.126 189.132 185.09 160.13C220.054 131.128 264.245 115.601 309.665 116.357C355.086 117.113 398.735 134.103 432.714 164.252C466.693 194.402 488.758 235.719 494.914 280.726C501.071 325.734 490.913 371.458 466.279 409.625Z" fill="#D9D9D9" stroke="black" stroke-width="59"/>
<path d="M222.007 461.106C225.696 445.237 215.823 429.382 199.954 425.692C184.085 422.003 168.229 431.876 164.54 447.745L222.007 461.106ZM99.8985 856.029L71.1649 849.348L99.8985 856.029ZM164.54 447.745L71.1649 849.348L128.632 862.71L222.007 461.106L164.54 447.745ZM114.509 903.926H497.182V844.926H114.509V903.926ZM540.227 848.141L435.049 446.945L377.978 461.907L483.156 863.103L540.227 848.141ZM497.182 903.926C526.342 903.926 547.622 876.348 540.227 848.141L483.156 863.103C480.746 853.912 487.68 844.926 497.182 844.926V903.926ZM71.1649 849.348C64.6773 877.251 85.8614 903.926 114.509 903.926V844.926C123.843 844.926 130.746 853.617 128.632 862.71L71.1649 849.348Z" fill="black"/>
<path d="M470.121 258.926H140.121C131.837 258.926 125.121 265.642 125.121 273.926V342.426C125.121 350.71 131.837 357.426 140.121 357.426H260.198C262.129 357.426 264.041 357.053 265.83 356.329L296.954 343.722C300.587 342.25 304.652 342.259 308.278 343.747L338.885 356.303C340.692 357.044 342.626 357.426 344.578 357.426H470.121C478.405 357.426 485.121 350.71 485.121 342.426V273.926C485.121 265.642 478.405 258.926 470.121 258.926Z" fill="#C3C4CA" stroke="black" stroke-width="34"/>
<path d="M185.621 303.926C181.479 303.926 178.121 307.284 178.121 311.426C178.121 315.568 181.479 318.926 185.621 318.926V303.926ZM185.621 318.926H282.621V303.926H185.621V318.926Z" fill="black"/>
<path d="M425.621 303.426C429.763 303.426 433.121 306.784 433.121 310.926C433.121 315.068 429.763 318.426 425.621 318.426V303.426ZM425.621 318.426H328.621V303.426H425.621V318.426Z" fill="black"/>
<path d="M282.637 295.71L186.581 282.21" stroke="black" stroke-width="7" stroke-linecap="round"/>
<line x1="332.073" y1="295.223" x2="421.197" y2="282.697" stroke="black" stroke-width="7" stroke-linecap="round"/>
<path d="M328.867 580.927C312.575 580.791 299.258 593.888 299.122 610.18C298.986 626.472 312.083 639.789 328.375 639.925L328.867 580.927ZM448.867 581.927L328.867 580.927L328.375 639.925L448.375 640.925L448.867 581.927Z" fill="black"/>
<path d="M389.049 688.929C372.758 688.693 359.36 701.708 359.124 717.998C358.888 734.289 371.903 747.687 388.194 747.923L389.049 688.929ZM458.049 689.929L389.049 688.929L388.194 747.923L457.194 748.923L458.049 689.929Z" fill="black"/>
<path d="M50.8269 222.926C54.291 216.926 62.9512 216.926 66.4153 222.926L101.922 284.426C105.386 290.426 101.056 297.926 94.1281 297.926H23.1141C16.1859 297.926 11.8557 290.426 15.3198 284.426L50.8269 222.926Z" fill="black"/>
<path d="M48.9587 322.011C46.9663 314.575 53.7705 307.771 61.2062 309.763L98.4704 319.748C105.906 321.741 108.397 331.035 102.953 336.479L75.674 363.758C70.2307 369.201 60.936 366.711 58.9436 359.275L48.9587 322.011Z" fill="black"/>
<path d="M702.73 405.388C691.967 405.388 685.212 399.091 685.212 389.129C685.212 386.267 686.013 382.374 687.502 378.137L732.615 255.278C737.424 241.881 745.554 235.698 758.607 235.698C772.118 235.698 780.133 241.652 785.056 255.163L830.399 378.137C832.002 382.603 832.574 385.694 832.574 389.129C832.574 398.633 825.361 405.388 815.285 405.388C805.552 405.388 800.4 400.923 797.308 390.16L788.606 364.054H728.951L720.249 389.816C717.043 400.808 711.89 405.388 702.73 405.388ZM736.508 337.26H780.591L758.721 269.59H757.92L736.508 337.26ZM931.206 405.961C888.84 405.961 861.932 381.229 861.932 344.817V253.789C861.932 242.339 868.344 235.698 879.222 235.698C890.1 235.698 896.512 242.339 896.512 253.789V341.382C896.512 362.565 908.992 376.42 931.206 376.42C953.304 376.42 965.785 362.565 965.785 341.382V253.789C965.785 242.339 972.197 235.698 983.074 235.698C993.952 235.698 1000.36 242.339 1000.36 253.789V344.817C1000.36 381.229 973.456 405.961 931.206 405.961ZM1096.48 405.388C1085.6 405.388 1079.19 398.747 1079.19 387.412V266.613H1045.07C1035.68 266.613 1029.38 261.232 1029.38 252.301C1029.38 243.37 1035.56 237.988 1045.07 237.988H1148C1157.39 237.988 1163.57 243.37 1163.57 252.301C1163.57 261.232 1157.28 266.613 1148 266.613H1113.77V387.412C1113.77 398.747 1107.35 405.388 1096.48 405.388ZM1209.76 405.388C1198.89 405.388 1192.47 398.747 1192.47 387.412V253.789C1192.47 242.339 1198.89 235.698 1209.76 235.698C1220.64 235.698 1227.05 242.339 1227.05 253.789V305.086H1301.48V253.789C1301.48 242.339 1307.89 235.698 1318.77 235.698C1329.65 235.698 1336.06 242.339 1336.06 253.789V387.412C1336.06 398.747 1329.65 405.388 1318.77 405.388C1307.89 405.388 1301.48 398.747 1301.48 387.412V333.596H1227.05V387.412C1227.05 398.747 1220.64 405.388 1209.76 405.388ZM708.341 639.388C697.921 639.388 691.738 633.091 691.738 622.099V486.988C691.738 475.995 698.15 469.698 709.142 469.698C716.241 469.698 721.05 472.56 726.317 479.774L797.766 579.619H798.682V487.102C798.682 475.995 804.865 469.698 815.285 469.698C825.704 469.698 831.773 475.995 831.773 487.102V622.557C831.773 633.32 825.704 639.388 814.827 639.388C807.384 639.388 802.804 636.755 797.537 629.427L725.859 529.009H724.829V622.099C724.829 633.091 718.646 639.388 708.341 639.388ZM888.382 639.388C877.505 639.388 871.093 632.747 871.093 621.412V487.789C871.093 476.339 877.505 469.698 888.382 469.698C899.26 469.698 905.672 476.339 905.672 487.789V621.412C905.672 632.747 899.26 639.388 888.382 639.388ZM961.48 639.388C951.06 639.388 944.877 633.091 944.877 622.099V486.988C944.877 475.995 951.289 469.698 962.281 469.698C969.38 469.698 974.189 472.56 979.456 479.774L1050.9 579.619H1051.82V487.102C1051.82 475.995 1058 469.698 1068.42 469.698C1078.84 469.698 1084.91 475.995 1084.91 487.102V622.557C1084.91 633.32 1078.84 639.388 1067.97 639.388C1060.52 639.388 1055.94 636.755 1050.68 629.427L978.998 529.009H977.968V622.099C977.968 633.091 971.785 639.388 961.48 639.388ZM1169.92 639.961C1145.07 639.961 1125.95 628.625 1118.16 609.618C1116.22 604.809 1115.3 600.687 1115.3 595.649C1115.3 585.687 1121.6 579.39 1131.33 579.39C1140.03 579.39 1145.07 583.512 1147.82 592.901C1150.91 604.008 1158.58 610.191 1169.57 610.191C1184 610.191 1191.79 601.26 1191.79 584.657V487.789C1191.79 476.339 1198.2 469.698 1209.08 469.698C1219.95 469.698 1226.37 476.339 1226.37 487.789V584.886C1226.37 620.038 1205.3 639.961 1169.92 639.961ZM1274.5 639.388C1263.74 639.388 1256.98 633.091 1256.98 623.129C1256.98 620.267 1257.79 616.374 1259.27 612.137L1304.39 489.278C1309.2 475.881 1317.33 469.698 1330.38 469.698C1343.89 469.698 1351.91 475.652 1356.83 489.163L1402.17 612.137C1403.77 616.603 1404.35 619.694 1404.35 623.129C1404.35 632.633 1397.13 639.388 1387.06 639.388C1377.32 639.388 1372.17 634.923 1369.08 624.16L1360.38 598.054H1300.72L1292.02 623.816C1288.82 634.808 1283.66 639.388 1274.5 639.388ZM1308.28 571.26H1352.36L1330.49 503.59H1329.69L1308.28 571.26Z" fill="black"/>
</svg>
